<svg xmlns="http://www.w3.org/2000/svg" width="160" height="160" viewBox="0 0 64 64">
  <path d="M 8 8 L 56 8 L 56 38 C 56 50 32 60 32 60 C 32 60 8 50 8 38 Z" fill="#D63837"/>
  <path d="M 8 8 L 56 8 L 56 38 C 56 50 32 60 32 60 C 32 60 8 50 8 38 Z" fill="none" stroke="#E8A92E" stroke-width="1.5"/>
  <path d="M 44 22 c -3 -4 -9 -5 -13 -5 -7 0 -11 4 -11 9 0 5 3 7 12 8 s 11 3 11 8 -4 9 -12 9 c -4 0 -9 -1 -12 -5"
        stroke="#F4ECD8" stroke-width="6" stroke-linecap="round" fill="none"/>
  <circle cx="50" cy="52" r="2.5" fill="#F47B3F"/>
</svg>
